<?xml version="1.0" standalone="no"?>
<!DOCTYPE svg PUBLIC "-//W3C//DTD SVG 20010904//EN"
 "http://www.w3.org/TR/2001/REC-SVG-20010904/DTD/svg10.dtd">
<svg version="1.0" xmlns="http://www.w3.org/2000/svg"
 width="600.000000pt" height="600.000000pt" viewBox="0 0 600.000000 600.000000"
 preserveAspectRatio="xMidYMid meet">
<metadata>
Created by potrace 1.11, written by Peter Selinger 2001-2013
</metadata>
<g transform="translate(0.000000,600.000000) scale(0.100000,-0.100000)"
fill="#000000" stroke="none">
<path d="M1765 4584 c-271 -14 -496 -47 -715 -105 -282 -75 -422 -157 -557
-324 -73 -91 -99 -150 -114 -257 -22 -159 21 -382 89 -467 47 -60 84 -73 182
-68 103 5 166 30 204 79 34 45 33 63 -9 161 -19 45 -39 105 -44 133 -27 145
64 253 272 322 102 34 318 75 365 70 27 -3 27 -4 25 -68 -3 -78 -48 -495 -69
-635 -21 -140 -22 -141 -141 -149 -125 -9 -180 -27 -226 -74 -44 -45 -57 -78
-57 -144 0 -123 71 -187 221 -198 48 -4 95 -12 103 -19 12 -11 16 -34 16 -106
0 -278 -119 -579 -274 -696 -99 -75 -240 -98 -358 -58 -93 31 -162 81 -292
210 -129 129 -165 150 -217 129 -38 -16 -84 -69 -99 -115 -7 -20 -10 -65 -8
-99 12 -197 247 -403 544 -478 126 -32 362 -31 479 1 240 65 434 216 544 422
66 123 158 445 182 629 6 47 13 100 15 117 3 20 13 37 27 44 14 8 129 15 337
19 178 4 330 12 349 19 96 30 170 131 170 231 1 44 -31 115 -57 129 -39 21
-195 31 -480 31 -275 0 -293 1 -288 18 8 27 34 279 51 487 24 299 31 325 92
353 33 14 87 17 397 20 297 3 358 1 354 -10 -3 -7 -20 -58 -38 -113 -38 -118
-51 -272 -30 -378 15 -79 81 -222 122 -264 71 -73 228 -61 320 25 49 46 52 74
17 192 -39 135 -48 252 -25 315 21 53 86 114 160 149 66 31 215 71 341 92 115
18 339 24 354 9 6 -7 1 -47 -15 -117 -112 -495 -331 -1860 -341 -2128 -6 -151
3 -202 43 -250 46 -54 78 -65 194 -65 124 0 156 13 195 78 40 69 62 175 126
617 65 454 153 993 229 1416 70 384 79 423 105 440 35 23 126 26 520 17 619
-15 675 -4 691 133 13 107 -42 196 -144 234 -51 20 -89 23 -377 31 -344 10
-1029 4 -1344 -12 -107 -5 -246 -19 -310 -30 -178 -31 -257 -38 -299 -27 -139
35 -242 49 -502 68 -139 10 -880 20 -1005 14z"/>
</g>
</svg>
